<?xml version="1.0" encoding="UTF-8" standalone="no"?>
<!-- Created with Inkscape (http://www.inkscape.org/) -->

<svg
   xmlns:ns0="http://www.iki.fi/pav/software/textext/"
   xmlns:dc="http://purl.org/dc/elements/1.1/"
   xmlns:cc="http://creativecommons.org/ns#"
   xmlns:rdf="http://www.w3.org/1999/02/22-rdf-syntax-ns#"
   xmlns:svg="http://www.w3.org/2000/svg"
   xmlns="http://www.w3.org/2000/svg"
   xmlns:sodipodi="http://sodipodi.sourceforge.net/DTD/sodipodi-0.dtd"
   xmlns:inkscape="http://www.inkscape.org/namespaces/inkscape"
   width="210mm"
   height="297mm"
   id="svg2"
   version="1.1"
   inkscape:version="0.48.5 r10040"
   sodipodi:docname="Neues Dokument 1">
  <sodipodi:namedview
     id="base"
     pagecolor="#ffffff"
     bordercolor="#666666"
     borderopacity="1.0"
     inkscape:pageopacity="0.0"
     inkscape:pageshadow="2"
     inkscape:zoom="2.8"
     inkscape:cx="211.20734"
     inkscape:cy="632.11633"
     inkscape:document-units="px"
     inkscape:current-layer="layer1"
     showgrid="false"
     showguides="true"
     inkscape:guide-bbox="true"
     inkscape:window-width="1744"
     inkscape:window-height="1178"
     inkscape:window-x="168"
     inkscape:window-y="-8"
     inkscape:window-maximized="1">
    <sodipodi:guide
       id="guide2987"
       position="300.01531,1146.5231"
       orientation="1,0" />
    <sodipodi:guide
       id="guide2989"
       position="100.0051,981.86827"
       orientation="1,0" />
    <sodipodi:guide
       id="guide2991"
       position="500.02551,935.40126"
       orientation="1,0" />
    <sodipodi:guide
       orientation="1,0"
       position="350.01786,693.9748"
       id="guide5679" />
    <sodipodi:guide
       orientation="1,0"
       position="250.01276,702.5611"
       id="guide5681" />
    <sodipodi:guide
       id="guide5796"
       position="124.64286,586.07143"
       orientation="1,0" />
    <sodipodi:guide
       id="guide5798"
       position="476.07143,586.42857"
       orientation="1,0" />
    <sodipodi:guide
       id="guide5800"
       position="386.07143,607.14286"
       orientation="0,1" />
  </sodipodi:namedview>
  <defs
     id="defs4">
    <marker
       inkscape:stockid="Arrow2Mstart"
       orient="auto"
       refY="0.0"
       refX="0.0"
       id="Arrow2Mstart"
       style="overflow:visible">
      <path
         id="path3973"
         style="fill-rule:evenodd;stroke-width:0.62500000;stroke-linejoin:round"
         d="M 8.7185878,4.0337352 L -2.2072895,0.016013256 L 8.7185884,-4.0017078 C 6.9730900,-1.6296469 6.9831476,1.6157441 8.7185878,4.0337352 z "
         transform="scale(0.6) translate(0,0)" />
    </marker>
    <marker
       inkscape:stockid="Arrow2Mend"
       orient="auto"
       refY="0.0"
       refX="0.0"
       id="Arrow2Mend"
       style="overflow:visible;">
      <path
         id="path3976"
         style="fill-rule:evenodd;stroke-width:0.62500000;stroke-linejoin:round;"
         d="M 8.7185878,4.0337352 L -2.2072895,0.016013256 L 8.7185884,-4.0017078 C 6.9730900,-1.6296469 6.9831476,1.6157441 8.7185878,4.0337352 z "
         transform="scale(0.6) rotate(180) translate(0,0)" />
    </marker>
    <marker
       style="overflow:visible"
       id="Arrow1Lstart"
       refX="0.0"
       refY="0.0"
       orient="auto"
       inkscape:stockid="Arrow1Lstart">
      <path
         transform="scale(0.8) translate(12.5,0)"
         style="fill-rule:evenodd;stroke:#000000;stroke-width:1.0pt"
         d="M 0.0,0.0 L 5.0,-5.0 L -12.5,0.0 L 5.0,5.0 L 0.0,0.0 z "
         id="path3949" />
    </marker>
    <marker
       style="overflow:visible;"
       id="Arrow1Lend"
       refX="0.0"
       refY="0.0"
       orient="auto"
       inkscape:stockid="Arrow1Lend">
      <path
         transform="scale(0.8) rotate(180) translate(12.5,0)"
         style="fill-rule:evenodd;stroke:#000000;stroke-width:1.0pt;"
         d="M 0.0,0.0 L 5.0,-5.0 L -12.5,0.0 L 5.0,5.0 L 0.0,0.0 z "
         id="path3952" />
    </marker>
  </defs>
  <metadata
     id="metadata7">
    <rdf:RDF>
      <cc:Work
         rdf:about="">
        <dc:format>image/svg+xml</dc:format>
        <dc:type
           rdf:resource="http://purl.org/dc/dcmitype/StillImage" />
        <dc:title></dc:title>
      </cc:Work>
    </rdf:RDF>
  </metadata>
  <g
     id="layer1"
     inkscape:groupmode="layer"
     inkscape:label="Ebene 1">
    <path
       inkscape:connector-curvature="0"
       id="path2993"
       d="m 300.01531,271.51427 0,194.95944 200.0102,0"
       style="fill:none;stroke:#000000;stroke-width:2;stroke-linecap:butt;stroke-linejoin:miter;stroke-opacity:1;marker-start:url(#Arrow2Mstart);marker-end:url(#Arrow2Mend);stroke-miterlimit:4;stroke-dasharray:none" />
    <path
       inkscape:connector-curvature="0"
       id="path2995"
       d="m 300.01531,466.47371 -200.01021,0"
       style="fill:none;stroke:#000000;stroke-width:2;stroke-linecap:butt;stroke-linejoin:miter;stroke-opacity:1;marker-mid:none;marker-end:url(#Arrow2Mend);stroke-miterlimit:4;stroke-dasharray:none" />
    <path
       inkscape:connector-curvature="0"
       id="path4939"
       d="m 124.64286,459.1479 0,14.28571"
       style="fill:none;stroke:#000000;stroke-width:1px;stroke-linecap:butt;stroke-linejoin:miter;stroke-opacity:1" />
    <path
       inkscape:connector-curvature="0"
       id="path4939-1"
       d="m 476.07143,459.05599 0,14.28571"
       style="fill:none;stroke:#000000;stroke-width:1px;stroke-linecap:butt;stroke-linejoin:miter;stroke-opacity:1" />
    <g
       ns0:preamble=""
       ns0:text="$\\pi$"
       word-spacing="normal"
       letter-spacing="normal"
       font-size-adjust="none"
       font-stretch="normal"
       font-weight="normal"
       font-variant="normal"
       font-style="normal"
       stroke-miterlimit="10.433"
       xml:space="preserve"
       transform="matrix(2.36458,0,0,-2.36458,-59.750941,2163.1948)"
       id="content"
       style="font-style:normal;font-variant:normal;font-weight:normal;font-stretch:normal;letter-spacing:normal;word-spacing:normal;text-anchor:start;fill:none;stroke:#000000;stroke-linecap:butt;stroke-linejoin:miter;stroke-miterlimit:10.43299961;stroke-opacity:1;stroke-dasharray:none;stroke-dashoffset:0">
<path
   id="path4976"
   d="m 226.07,710.83 h 1.12 c -0.33,-1.47 -0.42,-1.9 -0.42,-2.56 0,-0.15 0,-0.42 0.08,-0.76 0.1,-0.43 0.21,-0.49 0.36,-0.49 0.2,0 0.41,0.17 0.41,0.37 0,0.06 0,0.08 -0.06,0.22 -0.29,0.72 -0.29,1.36 -0.29,1.64 0,0.53 0.07,1.06 0.18,1.58 h 1.14 c 0.12,0 0.48,0 0.48,0.34 0,0.24 -0.21,0.24 -0.39,0.24 h -3.34 c -0.22,0 -0.6,0 -1.03,-0.47 -0.35,-0.39 -0.61,-0.85 -0.61,-0.89 0,-0.01 0,-0.1 0.12,-0.1 0.08,0 0.1,0.04 0.16,0.12 0.49,0.76 1.06,0.76 1.26,0.76 h 0.57 c -0.32,-1.2 -0.86,-2.4 -1.27,-3.31 -0.08,-0.15 -0.08,-0.17 -0.08,-0.24 0,-0.19 0.16,-0.26 0.28,-0.26 0.3,0 0.38,0.27 0.5,0.64 0.14,0.46 0.14,0.48 0.27,0.98 z"
   inkscape:connector-curvature="0"
   style="fill:#000000;stroke-width:0" />
</g>    <g
       id="g5033"
       transform="matrix(2.4309066,0,0,-2.4309066,-434.18448,2208.5767)"
       xml:space="preserve"
       stroke-miterlimit="10.433"
       font-style="normal"
       font-variant="normal"
       font-weight="normal"
       font-stretch="normal"
       font-size-adjust="none"
       letter-spacing="normal"
       word-spacing="normal"
       ns0:text="$-\\pi$"
       ns0:preamble=""
       style="font-style:normal;font-variant:normal;font-weight:normal;font-stretch:normal;letter-spacing:normal;word-spacing:normal;text-anchor:start;fill:none;stroke:#000000;stroke-linecap:butt;stroke-linejoin:miter;stroke-miterlimit:10.43299961;stroke-opacity:1;stroke-dasharray:none;stroke-dashoffset:0">
<path
   style="fill:#000000;stroke-width:0"
   inkscape:connector-curvature="0"
   d="m 229.99,709.41 0.03,0 0.03,0 0.03,0 0.02,0 0.01,0 0.02,0 0.01,0.01 0.02,0 0.01,0 0.02,0 0.01,0.01 0.01,0 0.02,0 0.01,0.01 0.01,0.01 0.01,0 0.01,0.01 0.01,0.01 0.01,0 0.01,0.01 0.01,0.01 0,0.01 0,0 0.01,0.01 0,0.01 0,0 0,0.01 0.01,0.01 0,0 0,0.01 0,0.01 0,0.01 0,0 0.01,0.01 0,0.01 0,0.01 0,0.01 c 0,0.2 -0.18,0.2 -0.35,0.2 h -5.38 c -0.17,0 -0.35,0 -0.35,-0.2 0,-0.2 0.18,-0.2 0.35,-0.2 z"
   id="path5035" />
<path
   style="fill:#000000;stroke-width:0"
   inkscape:connector-curvature="0"
   d="m 233.82,710.83 h 1.12 c -0.33,-1.47 -0.42,-1.9 -0.42,-2.56 0,-0.15 0,-0.42 0.08,-0.76 0.1,-0.43 0.21,-0.49 0.36,-0.49 0.2,0 0.41,0.17 0.41,0.37 0,0.06 0,0.08 -0.06,0.22 -0.29,0.72 -0.29,1.36 -0.29,1.64 0,0.53 0.07,1.06 0.18,1.58 h 1.14 c 0.12,0 0.48,0 0.48,0.34 0,0.24 -0.21,0.24 -0.4,0.24 h -3.33 c -0.22,0 -0.6,0 -1.03,-0.47 -0.35,-0.39 -0.61,-0.85 -0.61,-0.89 0,-0.01 0,-0.1 0.12,-0.1 0.08,0 0.1,0.04 0.16,0.12 0.49,0.76 1.06,0.76 1.26,0.76 h 0.57 c -0.32,-1.2 -0.86,-2.4 -1.27,-3.31 -0.08,-0.15 -0.08,-0.17 -0.08,-0.24 0,-0.19 0.16,-0.26 0.28,-0.26 0.3,0 0.38,0.27 0.5,0.64 0.14,0.46 0.14,0.48 0.27,0.98 z"
   id="path5037" />
</g>    <path
       inkscape:connector-curvature="0"
       id="path5058"
       d="M 124.28571,465.93361 300.01531,296.6479 475.71429,465.93361"
       style="fill:none;stroke:#000000;stroke-width:1px;stroke-linecap:butt;stroke-linejoin:miter;stroke-opacity:1" />
    <g
       ns0:preamble=""
       ns0:text="$X(\\Omega)$"
       word-spacing="normal"
       letter-spacing="normal"
       font-size-adjust="none"
       font-stretch="normal"
       font-weight="normal"
       font-variant="normal"
       font-style="normal"
       stroke-miterlimit="10.433"
       xml:space="preserve"
       transform="matrix(1.5,0,0,-1.5,58.861739,1433.2143)"
       id="g5082"
       style="font-style:normal;font-variant:normal;font-weight:normal;font-stretch:normal;letter-spacing:normal;word-spacing:normal;text-anchor:start;fill:none;stroke:#000000;stroke-linecap:butt;stroke-linejoin:miter;stroke-miterlimit:10.43299961;stroke-opacity:1;stroke-dasharray:none;stroke-dashoffset:0">
<path
   id="path5084"
   d="m 228.26,711.21 -0.84,1.97 c -0.03,0.08 -0.05,0.12 -0.05,0.13 0,0.06 0.17,0.25 0.59,0.29 0.1,0.01 0.2,0.02 0.2,0.19 0,0.12 -0.12,0.12 -0.15,0.12 -0.41,0 -0.84,-0.03 -1.25,-0.03 -0.25,0 -0.87,0.03 -1.12,0.03 -0.06,0 -0.18,0 -0.18,-0.2 0,-0.11 0.1,-0.11 0.23,-0.11 0.6,0 0.66,-0.1 0.75,-0.32 l 1.17,-2.77 -2.1,-2.25 -0.13,-0.11 c -0.48,-0.53 -0.95,-0.69 -1.46,-0.72 -0.13,-0.01 -0.22,-0.01 -0.22,-0.2 0,-0.01 0,-0.1 0.13,-0.1 0.3,0 0.63,0.03 0.93,0.03 0.37,0 0.76,-0.03 1.12,-0.03 0.06,0 0.18,0 0.18,0.19 0,0.1 -0.1,0.11 -0.12,0.11 -0.09,0.01 -0.4,0.03 -0.4,0.31 0,0.16 0.15,0.32 0.27,0.45 l 1.01,1.07 0.9,0.97 1.01,-2.37 c 0.03,-0.11 0.04,-0.12 0.04,-0.14 0,-0.08 -0.18,-0.25 -0.57,-0.29 -0.11,-0.01 -0.2,-0.02 -0.2,-0.19 0,-0.11 0.11,-0.11 0.15,-0.11 0.28,0 0.97,0.03 1.25,0.03 0.25,0 0.86,-0.03 1.11,-0.03 0.07,0 0.19,0 0.19,0.18 0,0.12 -0.1,0.12 -0.18,0.12 -0.67,0.01 -0.69,0.04 -0.86,0.44 -0.39,0.92 -1.05,2.47 -1.28,3.07 0.67,0.7 1.72,1.88 2.04,2.15 0.29,0.24 0.66,0.48 1.26,0.51 0.13,0.01 0.22,0.01 0.22,0.2 0,0.01 0,0.11 -0.13,0.11 -0.3,0 -0.63,-0.03 -0.94,-0.03 -0.36,0 -0.74,0.03 -1.1,0.03 -0.06,0 -0.19,0 -0.19,-0.2 0,-0.07 0.05,-0.1 0.12,-0.11 0.09,-0.01 0.4,-0.03 0.4,-0.31 0,-0.13 -0.11,-0.26 -0.19,-0.35 z"
   inkscape:connector-curvature="0"
   style="fill:#000000;stroke-width:0" />
<path
   id="path5086"
   d="m 235.76,704.74 0,0.01 0,0 0,0 0,0.01 0,0 0,0 0,0.01 0,0 -0.01,0 0,0.01 0,0 0,0.01 -0.01,0 0,0.01 0,0 -0.01,0.01 0,0.01 -0.01,0 0,0.01 -0.01,0 0,0.01 0,0 -0.01,0 0,0.01 -0.01,0 0,0.01 0,0 -0.01,0.01 0,0 -0.01,0.01 0,0 -0.01,0.01 -0.01,0.01 0,0 -0.01,0.01 0,0.01 -0.01,0 -0.01,0.01 -0.01,0.01 0,0 -0.01,0.01 -0.01,0.01 c -1.24,1.25 -1.56,3.13 -1.56,4.65 0,1.73 0.38,3.46 1.6,4.7 0.13,0.12 0.13,0.14 0.13,0.17 0,0.07 -0.04,0.1 -0.1,0.1 -0.1,0 -0.99,-0.68 -1.58,-1.94 -0.51,-1.09 -0.63,-2.2 -0.63,-3.03 0,-0.78 0.11,-1.98 0.66,-3.1 0.6,-1.22 1.45,-1.87 1.55,-1.87 0.06,0 0.1,0.03 0.1,0.1 z"
   inkscape:connector-curvature="0"
   style="fill:#000000;stroke-width:0" />
<path
   id="path5088"
   d="m 243.08,708.73 h -0.25 c -0.05,-0.25 -0.09,-0.48 -0.18,-0.72 -0.05,-0.16 -0.08,-0.24 -0.66,-0.24 h -0.79 c 0.13,0.56 0.43,1.03 0.88,1.69 0.47,0.7 0.88,1.39 0.88,2.18 0,1.38 -1.34,2.49 -3.03,2.49 -1.71,0 -3.03,-1.13 -3.03,-2.49 0,-0.79 0.41,-1.48 0.87,-2.18 0.44,-0.66 0.76,-1.13 0.89,-1.69 h -0.79 c -0.58,0 -0.61,0.08 -0.66,0.23 -0.08,0.23 -0.13,0.49 -0.18,0.73 h -0.25 l 0.33,-1.6 h 1.59 c 0.22,0 0.25,0 0.25,0.2 0,0.7 -0.31,1.57 -0.54,2.21 -0.21,0.57 -0.49,1.36 -0.49,2.11 0,1.58 1.1,2.26 2,2.26 0.96,0 2.01,-0.71 2.01,-2.26 0,-0.75 -0.27,-1.5 -0.55,-2.32 -0.15,-0.42 -0.47,-1.31 -0.47,-2 0,-0.2 0.03,-0.2 0.26,-0.2 h 1.58 z"
   inkscape:connector-curvature="0"
   style="fill:#000000;stroke-width:0" />
<path
   id="path5090"
   d="m 246.41,709.61 0,0.07 0,0.08 0,0.08 0,0.08 -0.01,0.17 -0.01,0.17 -0.02,0.18 -0.02,0.19 -0.03,0.2 -0.03,0.2 -0.04,0.2 -0.05,0.21 -0.05,0.21 -0.06,0.21 -0.07,0.21 -0.08,0.21 -0.04,0.11 -0.05,0.11 -0.04,0.1 -0.05,0.11 c -0.6,1.22 -1.46,1.87 -1.56,1.87 -0.06,0 -0.1,-0.04 -0.1,-0.1 0,-0.03 0,-0.05 0.19,-0.23 0.98,-0.99 1.55,-2.57 1.55,-4.64 0,-1.7 -0.37,-3.45 -1.61,-4.7 -0.13,-0.12 -0.13,-0.14 -0.13,-0.17 0,-0.06 0.04,-0.1 0.1,-0.1 0.1,0 1,0.68 1.59,1.94 0.5,1.09 0.62,2.19 0.62,3.03 z"
   inkscape:connector-curvature="0"
   style="fill:#000000;stroke-width:0" />
</g>    <path
       style="fill:none;stroke:#ff0000;stroke-width:1;stroke-linecap:butt;stroke-linejoin:miter;stroke-opacity:1;stroke-miterlimit:4;stroke-dasharray:none"
       d="m 350.01786,466.47371 0,-121.72339 -50.00255,-47.98224 -50.00255,47.98224 0,121.89758"
       id="path5683"
       inkscape:connector-curvature="0" />
    <g
       id="g5749"
       transform="matrix(1.5,0,0,-1.5,-24.05214,1428.5629)"
       xml:space="preserve"
       stroke-miterlimit="10.433"
       font-style="normal"
       font-variant="normal"
       font-weight="normal"
       font-stretch="normal"
       font-size-adjust="none"
       letter-spacing="normal"
       word-spacing="normal"
       ns0:text="$V(\\Omega)$"
       ns0:preamble=""
       style="font-style:normal;font-variant:normal;font-weight:normal;font-stretch:normal;letter-spacing:normal;word-spacing:normal;text-anchor:start;fill:none;stroke:#ff0000;stroke-linecap:butt;stroke-linejoin:miter;stroke-miterlimit:10.43299961000000000;stroke-opacity:1;stroke-dasharray:none;stroke-dashoffset:0">
<path
   style="fill:#000000;stroke-width:0;stroke:#ff0000;stroke-opacity:1"
   inkscape:connector-curvature="0"
   d="m 229.68,712.78 0.05,0.07 0.04,0.06 0.05,0.07 0.04,0.05 0.04,0.06 0.05,0.05 0.04,0.05 0.04,0.04 0.05,0.04 0.04,0.04 0.04,0.03 0.04,0.03 0.04,0.03 0.04,0.03 0.04,0.02 0.04,0.02 0.04,0.02 0.04,0.02 0.04,0.01 0.04,0.02 0.04,0.01 0.03,0.01 0.04,0.01 0.04,0 0.03,0.01 0.04,0 0.07,0.01 0.07,0.01 0.07,0 c 0.12,0.01 0.13,0.18 0.13,0.19 0,0.08 -0.05,0.12 -0.13,0.12 -0.25,0 -0.54,-0.03 -0.81,-0.03 -0.33,0 -0.67,0.03 -0.99,0.03 -0.06,0 -0.19,0 -0.19,-0.19 0,-0.11 0.09,-0.12 0.16,-0.12 0.27,-0.02 0.46,-0.12 0.46,-0.33 0,-0.14 -0.15,-0.36 -0.15,-0.37 l -3.05,-4.85 -0.68,5.25 c 0,0.17 0.23,0.3 0.69,0.3 0.14,0 0.25,0 0.25,0.2 0,0.09 -0.08,0.11 -0.14,0.11 -0.4,0 -0.83,-0.03 -1.24,-0.03 -0.18,0 -0.36,0.01 -0.55,0.01 -0.17,0 -0.36,0.02 -0.53,0.02 -0.07,0 -0.19,0 -0.19,-0.19 0,-0.12 0.09,-0.12 0.25,-0.12 0.55,0 0.56,-0.09 0.6,-0.34 l 0.78,-6.12 c 0.03,-0.2 0.07,-0.23 0.2,-0.23 0.16,0 0.2,0.05 0.28,0.18 z"
   id="path5751" />
<path
   style="fill:#000000;stroke-width:0;stroke:#ff0000;stroke-opacity:1"
   inkscape:connector-curvature="0"
   d="m 234.75,704.74 0,0.01 0,0 0,0 0,0.01 0,0 0,0 0,0.01 0,0 -0.01,0 0,0.01 0,0 0,0.01 -0.01,0 0,0.01 0,0 -0.01,0.01 0,0.01 -0.01,0 0,0.01 -0.01,0 0,0.01 0,0 -0.01,0 0,0.01 -0.01,0 0,0.01 0,0 -0.01,0.01 0,0 -0.01,0.01 0,0 -0.01,0.01 -0.01,0.01 0,0 -0.01,0.01 0,0.01 -0.01,0 -0.01,0.01 -0.01,0.01 0,0 -0.01,0.01 -0.01,0.01 c -1.24,1.25 -1.56,3.13 -1.56,4.65 0,1.73 0.38,3.46 1.6,4.7 0.13,0.12 0.13,0.14 0.13,0.17 0,0.07 -0.04,0.1 -0.1,0.1 -0.1,0 -0.99,-0.68 -1.58,-1.94 -0.51,-1.09 -0.63,-2.2 -0.63,-3.03 0,-0.78 0.11,-1.98 0.66,-3.1 0.6,-1.22 1.45,-1.87 1.55,-1.87 0.06,0 0.1,0.03 0.1,0.1 z"
   id="path5753" />
<path
   style="fill:#000000;stroke-width:0;stroke:#ff0000;stroke-opacity:1"
   inkscape:connector-curvature="0"
   d="m 242.07,708.73 h -0.25 c -0.05,-0.25 -0.09,-0.48 -0.18,-0.72 -0.05,-0.16 -0.08,-0.24 -0.66,-0.24 h -0.79 c 0.13,0.56 0.44,1.03 0.88,1.69 0.47,0.7 0.88,1.39 0.88,2.18 0,1.38 -1.34,2.49 -3.03,2.49 -1.71,0 -3.03,-1.13 -3.03,-2.49 0,-0.79 0.41,-1.48 0.87,-2.18 0.44,-0.66 0.76,-1.13 0.89,-1.69 h -0.8 c -0.57,0 -0.6,0.08 -0.65,0.23 -0.08,0.23 -0.13,0.49 -0.18,0.73 h -0.25 l 0.33,-1.6 h 1.59 c 0.22,0 0.25,0 0.25,0.2 0,0.7 -0.31,1.57 -0.54,2.21 -0.21,0.57 -0.49,1.36 -0.49,2.11 0,1.58 1.1,2.26 2,2.26 0.96,0 2.01,-0.71 2.01,-2.26 0,-0.75 -0.27,-1.5 -0.55,-2.32 -0.15,-0.42 -0.47,-1.31 -0.47,-2 0,-0.2 0.03,-0.2 0.26,-0.2 h 1.58 z"
   id="path5755" />
<path
   style="fill:#000000;stroke-width:0;stroke:#ff0000;stroke-opacity:1"
   inkscape:connector-curvature="0"
   d="m 245.4,709.61 0,0.07 0,0.08 0,0.08 0,0.08 -0.01,0.17 -0.01,0.17 -0.02,0.18 -0.02,0.19 -0.03,0.2 -0.03,0.2 -0.04,0.2 -0.05,0.21 -0.05,0.21 -0.06,0.21 -0.07,0.21 -0.08,0.21 -0.04,0.11 -0.05,0.11 -0.04,0.1 -0.05,0.11 c -0.6,1.22 -1.46,1.87 -1.56,1.87 -0.06,0 -0.1,-0.04 -0.1,-0.1 0,-0.03 0,-0.05 0.19,-0.23 0.98,-0.99 1.55,-2.57 1.55,-4.64 0,-1.7 -0.37,-3.45 -1.61,-4.7 -0.13,-0.12 -0.13,-0.14 -0.13,-0.17 0,-0.06 0.04,-0.1 0.1,-0.1 0.1,0 1,0.68 1.59,1.94 0.5,1.09 0.62,2.19 0.62,3.03 z"
   id="path5757" />
</g>    <path
       inkscape:connector-curvature="0"
       id="path5802"
       d="m 476.07143,465.93361 0,-20.71429 -176.05612,-31.42857 -175.37245,31.42857 0,21.07143"
       style="fill:none;stroke:#0000ff;stroke-width:1px;stroke-linecap:butt;stroke-linejoin:miter;stroke-opacity:1" />
    <g
       style="font-style:normal;font-variant:normal;font-weight:normal;font-stretch:normal;letter-spacing:normal;word-spacing:normal;text-anchor:start;fill:none;stroke:#ff0000;stroke-linecap:butt;stroke-linejoin:miter;stroke-miterlimit:10.43299961;stroke-opacity:1;stroke-dasharray:none;stroke-dashoffset:0"
       ns0:preamble=""
       ns0:text="$Y(\\Omega)$"
       text-anchor="start"
       word-spacing="normal"
       letter-spacing="normal"
       font-size-adjust="none"
       font-stretch="normal"
       font-weight="normal"
       font-variant="normal"
       font-style="normal"
       fill-opacity="1"
       fill-rule="evenodd"
       fill="none"
       stroke-opacity="1"
       stroke-dashoffset="0"
       stroke-dasharray="none"
       stroke-miterlimit="10.433"
       stroke-linejoin="miter"
       stroke-linecap="butt"
       stroke="black"
       xml:space="preserve"
       transform="matrix(1.5,0,0,-1.5,46.50143,1507.2943)"
       id="g5877">
<path
   id="path5879"
   fill="black"
   stroke-width="0"
   d="M229.37,712.78 L229.51,712.92 C229.81,713.21,230.14,713.55,230.81,713.6 C230.92,713.61,231.01,713.61,231.01,713.79 C231.01,713.87,230.96,713.91,230.88,713.91 C230.63,713.91,230.34,713.88,230.07,713.88 C229.74,713.88,229.39,713.91,229.07,713.91 C229.01,713.91,228.88,713.91,228.88,713.72 C228.88,713.61,228.98,713.6,229.03,713.6 C229.1,713.6,229.39,713.58,229.39,713.37 C229.39,713.21,229.16,712.95,229.12,712.9 L226.82,710.24 L225.72,713.2 C225.66,713.33,225.66,713.35,225.66,713.36 C225.66,713.6,226.15,713.6,226.25,713.6 C226.39,713.6,226.49,713.6,226.49,713.8 C226.49,713.91,226.37,713.91,226.34,713.91 C226.06,713.91,225.36,713.88,225.08,713.88 C224.84,713.88,224.22,713.91,223.97,713.91 C223.91,713.91,223.78,713.91,223.78,713.71 C223.78,713.6,223.88,713.6,224.01,713.6 C224.61,713.6,224.65,713.51,224.74,713.26 L225.96,710 C225.97,709.97,226,709.86,226,709.83 C226,709.8,225.6,708.2,225.55,708.02 C225.42,707.47,225.41,707.44,224.62,707.43 C224.43,707.43,224.35,707.43,224.35,707.23 C224.35,707.13,224.47,707.13,224.49,707.13 C224.76,707.13,225.46,707.16,225.74,707.16 C226.02,707.16,226.74,707.13,227.01,707.13 C227.08,707.13,227.2,707.13,227.2,707.32 C227.2,707.43,227.11,707.43,226.92,707.43 C226.9,707.43,226.71,707.43,226.55,707.45 C226.34,707.47,226.28,707.49,226.28,707.61 C226.28,707.68,226.37,708.03,226.42,708.24 L226.76,709.64 C226.82,709.83,226.82,709.86,226.9,709.95 Z " />
<path
   id="path5881"
   fill="black"
   stroke-width="0"
   d="M234.72,704.74 L234.72,704.75 L234.72,704.75 L234.72,704.75 L234.72,704.76 L234.72,704.76 L234.72,704.76 L234.72,704.77 L234.72,704.77 L234.72,704.77 L234.71,704.78 L234.71,704.78 L234.71,704.79 L234.71,704.79 L234.7,704.8 L234.7,704.8 L234.69,704.81 L234.69,704.82 L234.68,704.82 L234.68,704.83 L234.68,704.83 L234.67,704.84 L234.67,704.84 L234.66,704.84 L234.66,704.85 L234.66,704.85 L234.65,704.86 L234.65,704.86 L234.64,704.87 L234.64,704.87 L234.63,704.88 L234.63,704.88 L234.62,704.89 L234.62,704.9 L234.61,704.9 L234.6,704.91 L234.6,704.92 L234.59,704.92 L234.58,704.93 L234.58,704.94 L234.57,704.94 L234.56,704.95 L234.55,704.96 C233.31,706.21,232.99,708.09,232.99,709.61 C232.99,711.34,233.37,713.07,234.59,714.31 C234.72,714.43,234.72,714.45,234.72,714.48 C234.72,714.55,234.68,714.58,234.62,714.58 C234.52,714.58,233.63,713.9,233.04,712.64 C232.53,711.55,232.41,710.44,232.41,709.61 C232.41,708.83,232.52,707.63,233.07,706.51 C233.67,705.29,234.52,704.64,234.62,704.64 C234.68,704.64,234.72,704.67,234.72,704.74 Z " />
<path
   id="path5883"
   fill="black"
   stroke-width="0"
   d="M242.04,708.73 H241.79 C241.74,708.48,241.7,708.25,241.61,708.01 C241.56,707.85,241.53,707.77,240.96,707.77 H240.16 C240.29,708.33,240.6,708.8,241.04,709.46 C241.51,710.16,241.92,710.85,241.92,711.64 C241.92,713.02,240.58,714.13,238.9,714.13 C237.18,714.13,235.86,713,235.86,711.64 C235.86,710.85,236.27,710.16,236.74,709.46 C237.18,708.8,237.49,708.33,237.62,707.77 H236.83 C236.25,707.77,236.22,707.85,236.17,708 C236.09,708.23,236.04,708.49,235.99,708.73 H235.74 L236.07,707.13 H237.66 C237.88,707.13,237.91,707.13,237.91,707.33 C237.91,708.03,237.6,708.9,237.37,709.54 C237.16,710.11,236.89,710.9,236.89,711.65 C236.89,713.23,237.98,713.91,238.89,713.91 C239.84,713.91,240.9,713.2,240.9,711.65 C240.9,710.9,240.63,710.15,240.34,709.33 C240.19,708.91,239.87,708.02,239.87,707.33 C239.87,707.13,239.9,707.13,240.13,707.13 H241.71 Z " />
<path
   id="path5885"
   fill="black"
   stroke-width="0"
   d="M245.38,709.61 L245.37,709.68 L245.37,709.76 L245.37,709.84 L245.37,709.92 L245.36,710.09 L245.35,710.26 L245.33,710.44 L245.31,710.63 L245.28,710.83 L245.25,711.03 L245.21,711.23 L245.17,711.44 L245.11,711.65 L245.05,711.86 L244.98,712.07 L244.9,712.28 L244.86,712.39 L244.82,712.5 L244.77,712.6 L244.72,712.71 C244.12,713.93,243.27,714.58,243.17,714.58 C243.11,714.58,243.07,714.54,243.07,714.48 C243.07,714.45,243.07,714.43,243.26,714.25 C244.23,713.26,244.8,711.68,244.8,709.61 C244.8,707.91,244.43,706.16,243.2,704.91 C243.07,704.79,243.07,704.77,243.07,704.74 C243.07,704.68,243.11,704.64,243.17,704.64 C243.27,704.64,244.16,705.32,244.75,706.58 C245.26,707.67,245.38,708.77,245.38,709.61 Z " />
</g>    <path
       inkscape:connector-curvature="0"
       id="path4939-6"
       d="m 250.01276,459.33085 0,14.28571"
       style="fill:none;stroke:#000000;stroke-width:1px;stroke-linecap:butt;stroke-linejoin:miter;stroke-opacity:1" />
    <path
       inkscape:connector-curvature="0"
       id="path4939-6-7"
       d="m 350.01786,459.07831 0,14.28571"
       style="fill:none;stroke:#000000;stroke-width:1px;stroke-linecap:butt;stroke-linejoin:miter;stroke-opacity:1" />
    <g
       id="g6043"
       transform="matrix(2.4309066,0,0,-2.4309066,-317.02051,2211.702)"
       xml:space="preserve"
       stroke-miterlimit="10.433"
       font-style="normal"
       font-variant="normal"
       font-weight="normal"
       font-stretch="normal"
       font-size-adjust="none"
       letter-spacing="normal"
       word-spacing="normal"
       ns0:text="$-\\frac{\\pi}{D}$"
       ns0:preamble=""
       style="font-style:normal;font-variant:normal;font-weight:normal;font-stretch:normal;letter-spacing:normal;word-spacing:normal;text-anchor:start;fill:none;stroke:#000000;stroke-linecap:butt;stroke-linejoin:miter;stroke-miterlimit:10.43299961;stroke-opacity:1;stroke-dasharray:none;stroke-dashoffset:0">
<path
   style="fill:#000000;stroke-width:0"
   inkscape:connector-curvature="0"
   d="m 229.99,709.41 0.03,0 0.03,0 0.03,0 0.02,0 0.01,0 0.02,0 0.01,0.01 0.02,0 0.01,0 0.02,0 0.01,0.01 0.01,0 0.02,0 0.01,0.01 0.01,0.01 0.01,0 0.01,0.01 0.01,0.01 0.01,0 0.01,0.01 0.01,0.01 0,0.01 0,0 0.01,0.01 0,0.01 0,0 0,0.01 0.01,0.01 0,0 0,0.01 0,0.01 0,0.01 0,0 0.01,0.01 0,0.01 0,0.01 0,0.01 c 0,0.2 -0.18,0.2 -0.35,0.2 h -5.38 c -0.17,0 -0.35,0 -0.35,-0.2 0,-0.2 0.18,-0.2 0.35,-0.2 z"
   id="path6045" />
<path
   style="fill:#000000;stroke-width:0"
   inkscape:connector-curvature="0"
   d="m 235.45,713.57 h 0.83 c -0.1,-0.41 -0.26,-1.05 -0.26,-1.6 0,-0.27 0.04,-0.46 0.08,-0.62 0.11,-0.34 0.2,-0.37 0.31,-0.37 0.16,0 0.33,0.14 0.33,0.31 0,0.06 -0.01,0.09 -0.06,0.15 -0.13,0.26 -0.25,0.66 -0.25,1.23 0,0.13 0,0.41 0.09,0.9 h 0.88 c 0.12,0 0.18,0 0.25,0.06 0.1,0.07 0.12,0.18 0.12,0.21 0,0.2 -0.18,0.2 -0.3,0.2 h -2.62 c -0.29,0 -0.48,-0.06 -0.8,-0.35 -0.18,-0.16 -0.45,-0.53 -0.45,-0.6 0,-0.08 0.09,-0.08 0.12,-0.08 0.07,0 0.08,0.01 0.12,0.08 0.36,0.48 0.79,0.48 0.94,0.48 h 0.43 c -0.22,-0.76 -0.59,-1.58 -0.8,-2 -0.04,-0.09 -0.11,-0.24 -0.14,-0.27 0,-0.02 -0.02,-0.05 -0.02,-0.1 0,-0.11 0.09,-0.22 0.25,-0.22 0.28,0 0.35,0.31 0.52,0.94 z"
   id="path6047" />
<line
   style="stroke-width:0.398"
   x1="232.38"
   y1="709.62"
   x2="239.10001"
   y2="709.62"
   id="line6049" />
<path
   style="fill:#000000;stroke-width:0"
   inkscape:connector-curvature="0"
   d="m 233.69,704.23 0,-0.02 -0.01,-0.02 0,-0.02 -0.01,-0.02 0,-0.02 -0.01,-0.01 0,-0.02 -0.01,-0.01 -0.01,-0.02 0,-0.01 -0.01,-0.01 -0.01,-0.01 -0.01,-0.01 -0.01,-0.01 -0.02,-0.01 -0.01,-0.01 -0.02,-0.01 -0.01,-0.01 -0.02,0 -0.02,-0.01 -0.01,0 -0.01,-0.01 -0.02,0 -0.01,0 -0.01,0 -0.02,0 -0.01,-0.01 -0.01,0 -0.02,0 -0.01,0 -0.02,0 -0.02,0 -0.01,0 -0.02,-0.01 -0.02,0 -0.02,0 -0.02,0 -0.02,0 -0.02,0 -0.03,0 -0.02,0 -0.02,0 -0.03,0 -0.02,0 c -0.13,0 -0.21,0 -0.21,-0.15 0,-0.1 0.08,-0.1 0.21,-0.1 h 2.49 l -0.13,0.25 h -0.95 c -0.21,0 -0.22,0.01 -0.22,0.07 0,0.01 0,0.04 0.03,0.15 l 0.95,3.79 c 0.06,0.22 0.07,0.24 0.36,0.24 h 0.89 c 0.78,0 1.43,-0.39 1.43,-1.34 0,-0.16 -0.07,-1.36 -0.76,-2.15 -0.27,-0.31 -0.87,-0.76 -1.73,-0.76 l 0.13,-0.25 c 1.54,0 3.03,1.42 3.03,2.93 0,1.02 -0.71,1.82 -1.84,1.82 h -2.54 c -0.14,0 -0.22,0 -0.22,-0.15 0,-0.1 0.07,-0.1 0.23,-0.1 0.11,0 0.14,0 0.26,-0.02 0.14,-0.01 0.16,-0.02 0.16,-0.09 0,-0.02 0,-0.05 -0.03,-0.16 z"
   id="path6051" />
</g>    <g
       style="font-style:normal;font-variant:normal;font-weight:normal;font-stretch:normal;letter-spacing:normal;word-spacing:normal;text-anchor:start;fill:none;stroke:#000000;stroke-linecap:butt;stroke-linejoin:miter;stroke-miterlimit:10.43299961;stroke-opacity:1;stroke-dasharray:none;stroke-dashoffset:0"
       ns0:preamble=""
       ns0:text="$\\frac{\\pi}{D}$"
       word-spacing="normal"
       letter-spacing="normal"
       font-size-adjust="none"
       font-stretch="normal"
       font-weight="normal"
       font-variant="normal"
       font-style="normal"
       stroke-miterlimit="10.433"
       xml:space="preserve"
       transform="matrix(2.4309066,0,0,-2.4309066,-203.88852,2213.6495)"
       id="g6206">
<path
   id="path6208"
   d="m 227.7,713.57 h 0.83 c -0.1,-0.41 -0.26,-1.05 -0.26,-1.6 0,-0.27 0.04,-0.46 0.08,-0.62 0.11,-0.34 0.2,-0.37 0.31,-0.37 0.16,0 0.33,0.14 0.33,0.31 0,0.06 -0.01,0.09 -0.05,0.15 -0.14,0.26 -0.26,0.66 -0.26,1.23 0,0.13 0,0.41 0.09,0.9 h 0.88 c 0.12,0 0.18,0 0.25,0.06 0.1,0.07 0.12,0.18 0.12,0.21 0,0.2 -0.18,0.2 -0.3,0.2 h -2.62 c -0.29,0 -0.48,-0.06 -0.8,-0.35 -0.18,-0.16 -0.45,-0.53 -0.45,-0.6 0,-0.08 0.09,-0.08 0.12,-0.08 0.07,0 0.08,0.01 0.12,0.08 0.36,0.48 0.79,0.48 0.94,0.48 h 0.43 c -0.22,-0.76 -0.59,-1.58 -0.8,-2 -0.04,-0.09 -0.11,-0.24 -0.13,-0.27 -0.01,-0.02 -0.02,-0.05 -0.02,-0.1 0,-0.11 0.08,-0.22 0.24,-0.22 0.28,0 0.35,0.31 0.52,0.94 z"
   inkscape:connector-curvature="0"
   style="fill:#000000;stroke-width:0" />
<line
   id="line6210"
   y2="709.62"
   x2="231.36"
   y1="709.62"
   x1="224.63"
   style="stroke-width:0.398" />
<path
   id="path6212"
   d="m 225.94,704.23 0,-0.02 -0.01,-0.02 0,-0.02 -0.01,-0.02 0,-0.02 -0.01,-0.01 0,-0.02 -0.01,-0.01 -0.01,-0.02 0,-0.01 -0.01,-0.01 -0.01,-0.01 -0.01,-0.01 -0.01,-0.01 -0.02,-0.01 -0.01,-0.01 -0.01,-0.01 -0.02,-0.01 -0.02,0 -0.02,-0.01 -0.01,0 -0.01,-0.01 -0.01,0 -0.02,0 -0.01,0 -0.01,0 -0.02,-0.01 -0.01,0 -0.02,0 -0.01,0 -0.02,0 -0.02,0 -0.01,0 -0.02,-0.01 -0.02,0 -0.02,0 -0.02,0 -0.02,0 -0.02,0 -0.02,0 -0.03,0 -0.02,0 -0.02,0 -0.03,0 c -0.12,0 -0.21,0 -0.21,-0.15 0,-0.1 0.09,-0.1 0.21,-0.1 h 2.49 l -0.13,0.25 h -0.95 c -0.21,0 -0.22,0.01 -0.22,0.07 0,0.01 0,0.04 0.03,0.15 l 0.95,3.79 c 0.06,0.22 0.07,0.24 0.36,0.24 h 0.89 c 0.78,0 1.44,-0.39 1.44,-1.34 0,-0.16 -0.07,-1.36 -0.77,-2.15 -0.27,-0.31 -0.87,-0.76 -1.73,-0.76 l 0.13,-0.25 c 1.54,0 3.03,1.42 3.03,2.93 0,1.02 -0.71,1.82 -1.84,1.82 h -2.54 c -0.14,0 -0.22,0 -0.22,-0.15 0,-0.1 0.08,-0.1 0.23,-0.1 0.11,0 0.14,0 0.26,-0.02 0.14,-0.01 0.16,-0.02 0.16,-0.09 0,-0.02 0,-0.05 -0.03,-0.16 z"
   inkscape:connector-curvature="0"
   style="fill:#000000;stroke-width:0" />
</g>  </g>
</svg>
