<?xml version="1.0" encoding="UTF-8" standalone="no"?>
<!-- Created with Inkscape (http://www.inkscape.org/) -->

<svg
   xmlns:ns0="http://www.iki.fi/pav/software/textext/"
   xmlns:dc="http://purl.org/dc/elements/1.1/"
   xmlns:cc="http://creativecommons.org/ns#"
   xmlns:rdf="http://www.w3.org/1999/02/22-rdf-syntax-ns#"
   xmlns:svg="http://www.w3.org/2000/svg"
   xmlns="http://www.w3.org/2000/svg"
   xmlns:sodipodi="http://sodipodi.sourceforge.net/DTD/sodipodi-0.dtd"
   xmlns:inkscape="http://www.inkscape.org/namespaces/inkscape"
   width="210mm"
   height="297mm"
   id="svg2"
   version="1.1"
   inkscape:version="0.48.5 r10040"
   sodipodi:docname="decimation_frequenz.pdf">
  <sodipodi:namedview
     id="base"
     pagecolor="#ffffff"
     bordercolor="#666666"
     borderopacity="1.0"
     inkscape:pageopacity="0.0"
     inkscape:pageshadow="2"
     inkscape:zoom="1.4"
     inkscape:cx="264.49494"
     inkscape:cy="511.60968"
     inkscape:document-units="px"
     inkscape:current-layer="layer1"
     showgrid="false"
     showguides="true"
     inkscape:guide-bbox="true"
     inkscape:window-width="1744"
     inkscape:window-height="1178"
     inkscape:window-x="168"
     inkscape:window-y="-8"
     inkscape:window-maximized="1">
    <sodipodi:guide
       id="guide2987"
       position="300.01531,1146.5231"
       orientation="1,0" />
    <sodipodi:guide
       id="guide2989"
       position="100.0051,981.86827"
       orientation="1,0" />
    <sodipodi:guide
       id="guide2991"
       position="500.02551,935.40126"
       orientation="1,0" />
    <sodipodi:guide
       orientation="1,0"
       position="350.04943,586.01475"
       id="guide5679" />
    <sodipodi:guide
       orientation="1,0"
       position="250.01276,702.5611"
       id="guide5681" />
    <sodipodi:guide
       id="guide5796"
       position="124.64286,586.07143"
       orientation="1,0" />
    <sodipodi:guide
       id="guide5798"
       position="476.07143,586.42857"
       orientation="1,0" />
    <sodipodi:guide
       id="guide5800"
       position="386.07143,607.14286"
       orientation="0,1" />
  </sodipodi:namedview>
  <defs
     id="defs4">
    <marker
       inkscape:stockid="Arrow2Mstart"
       orient="auto"
       refY="0.0"
       refX="0.0"
       id="Arrow2Mstart"
       style="overflow:visible">
      <path
         id="path3973"
         style="fill-rule:evenodd;stroke-width:0.62500000;stroke-linejoin:round"
         d="M 8.7185878,4.0337352 L -2.2072895,0.016013256 L 8.7185884,-4.0017078 C 6.9730900,-1.6296469 6.9831476,1.6157441 8.7185878,4.0337352 z "
         transform="scale(0.6) translate(0,0)" />
    </marker>
    <marker
       inkscape:stockid="Arrow2Mend"
       orient="auto"
       refY="0.0"
       refX="0.0"
       id="Arrow2Mend"
       style="overflow:visible;">
      <path
         id="path3976"
         style="fill-rule:evenodd;stroke-width:0.62500000;stroke-linejoin:round;"
         d="M 8.7185878,4.0337352 L -2.2072895,0.016013256 L 8.7185884,-4.0017078 C 6.9730900,-1.6296469 6.9831476,1.6157441 8.7185878,4.0337352 z "
         transform="scale(0.6) rotate(180) translate(0,0)" />
    </marker>
    <marker
       style="overflow:visible"
       id="Arrow1Lstart"
       refX="0.0"
       refY="0.0"
       orient="auto"
       inkscape:stockid="Arrow1Lstart">
      <path
         transform="scale(0.8) translate(12.5,0)"
         style="fill-rule:evenodd;stroke:#000000;stroke-width:1.0pt"
         d="M 0.0,0.0 L 5.0,-5.0 L -12.5,0.0 L 5.0,5.0 L 0.0,0.0 z "
         id="path3949" />
    </marker>
    <marker
       style="overflow:visible;"
       id="Arrow1Lend"
       refX="0.0"
       refY="0.0"
       orient="auto"
       inkscape:stockid="Arrow1Lend">
      <path
         transform="scale(0.8) rotate(180) translate(12.5,0)"
         style="fill-rule:evenodd;stroke:#000000;stroke-width:1.0pt;"
         d="M 0.0,0.0 L 5.0,-5.0 L -12.5,0.0 L 5.0,5.0 L 0.0,0.0 z "
         id="path3952" />
    </marker>
  </defs>
  <metadata
     id="metadata7">
    <rdf:RDF>
      <cc:Work
         rdf:about="">
        <dc:format>image/svg+xml</dc:format>
        <dc:type
           rdf:resource="http://purl.org/dc/dcmitype/StillImage" />
        <dc:title></dc:title>
      </cc:Work>
    </rdf:RDF>
  </metadata>
  <g
     id="layer1"
     inkscape:groupmode="layer"
     inkscape:label="Ebene 1">
    <path
       inkscape:connector-curvature="0"
       id="path2993"
       d="m 300.01531,271.51427 0,194.95944 200.0102,0"
       style="fill:none;stroke:#000000;stroke-width:2;stroke-linecap:butt;stroke-linejoin:miter;stroke-opacity:1;marker-start:url(#Arrow2Mstart);marker-end:url(#Arrow2Mend);stroke-miterlimit:4;stroke-dasharray:none" />
    <path
       inkscape:connector-curvature="0"
       id="path2995"
       d="m 300.01531,466.47371 -200.01021,0"
       style="fill:none;stroke:#000000;stroke-width:2;stroke-linecap:butt;stroke-linejoin:miter;stroke-opacity:1;marker-mid:none;marker-end:url(#Arrow2Mend);stroke-miterlimit:4;stroke-dasharray:none" />
    <path
       inkscape:connector-curvature="0"
       id="path4939"
       d="m 124.64286,459.1479 0,14.28571"
       style="fill:none;stroke:#000000;stroke-width:1px;stroke-linecap:butt;stroke-linejoin:miter;stroke-opacity:1" />
    <path
       inkscape:connector-curvature="0"
       id="path4939-1"
       d="m 476.07143,459.05599 0,14.28571"
       style="fill:none;stroke:#000000;stroke-width:1px;stroke-linecap:butt;stroke-linejoin:miter;stroke-opacity:1" />
    <g
       ns0:preamble=""
       ns0:text="$\\pi$"
       word-spacing="normal"
       letter-spacing="normal"
       font-size-adjust="none"
       font-stretch="normal"
       font-weight="normal"
       font-variant="normal"
       font-style="normal"
       stroke-miterlimit="10.433"
       xml:space="preserve"
       transform="matrix(2.36458,0,0,-2.36458,-59.750941,2163.1948)"
       id="content"
       style="font-style:normal;font-variant:normal;font-weight:normal;font-stretch:normal;letter-spacing:normal;word-spacing:normal;text-anchor:start;fill:none;stroke:#000000;stroke-linecap:butt;stroke-linejoin:miter;stroke-miterlimit:10.43299961;stroke-opacity:1;stroke-dasharray:none;stroke-dashoffset:0">
<path
   id="path4976"
   d="m 226.07,710.83 h 1.12 c -0.33,-1.47 -0.42,-1.9 -0.42,-2.56 0,-0.15 0,-0.42 0.08,-0.76 0.1,-0.43 0.21,-0.49 0.36,-0.49 0.2,0 0.41,0.17 0.41,0.37 0,0.06 0,0.08 -0.06,0.22 -0.29,0.72 -0.29,1.36 -0.29,1.64 0,0.53 0.07,1.06 0.18,1.58 h 1.14 c 0.12,0 0.48,0 0.48,0.34 0,0.24 -0.21,0.24 -0.39,0.24 h -3.34 c -0.22,0 -0.6,0 -1.03,-0.47 -0.35,-0.39 -0.61,-0.85 -0.61,-0.89 0,-0.01 0,-0.1 0.12,-0.1 0.08,0 0.1,0.04 0.16,0.12 0.49,0.76 1.06,0.76 1.26,0.76 h 0.57 c -0.32,-1.2 -0.86,-2.4 -1.27,-3.31 -0.08,-0.15 -0.08,-0.17 -0.08,-0.24 0,-0.19 0.16,-0.26 0.28,-0.26 0.3,0 0.38,0.27 0.5,0.64 0.14,0.46 0.14,0.48 0.27,0.98 z"
   inkscape:connector-curvature="0"
   style="fill:#000000;stroke-width:0" />
</g>    <g
       id="g5033"
       transform="matrix(2.4309066,0,0,-2.4309066,-434.18448,2208.5767)"
       xml:space="preserve"
       stroke-miterlimit="10.433"
       font-style="normal"
       font-variant="normal"
       font-weight="normal"
       font-stretch="normal"
       font-size-adjust="none"
       letter-spacing="normal"
       word-spacing="normal"
       ns0:text="$-\\pi$"
       ns0:preamble=""
       style="font-style:normal;font-variant:normal;font-weight:normal;font-stretch:normal;letter-spacing:normal;word-spacing:normal;text-anchor:start;fill:none;stroke:#000000;stroke-linecap:butt;stroke-linejoin:miter;stroke-miterlimit:10.43299961;stroke-opacity:1;stroke-dasharray:none;stroke-dashoffset:0">
<path
   style="fill:#000000;stroke-width:0"
   inkscape:connector-curvature="0"
   d="m 229.99,709.41 0.03,0 0.03,0 0.03,0 0.02,0 0.01,0 0.02,0 0.01,0.01 0.02,0 0.01,0 0.02,0 0.01,0.01 0.01,0 0.02,0 0.01,0.01 0.01,0.01 0.01,0 0.01,0.01 0.01,0.01 0.01,0 0.01,0.01 0.01,0.01 0,0.01 0,0 0.01,0.01 0,0.01 0,0 0,0.01 0.01,0.01 0,0 0,0.01 0,0.01 0,0.01 0,0 0.01,0.01 0,0.01 0,0.01 0,0.01 c 0,0.2 -0.18,0.2 -0.35,0.2 h -5.38 c -0.17,0 -0.35,0 -0.35,-0.2 0,-0.2 0.18,-0.2 0.35,-0.2 z"
   id="path5035" />
<path
   style="fill:#000000;stroke-width:0"
   inkscape:connector-curvature="0"
   d="m 233.82,710.83 h 1.12 c -0.33,-1.47 -0.42,-1.9 -0.42,-2.56 0,-0.15 0,-0.42 0.08,-0.76 0.1,-0.43 0.21,-0.49 0.36,-0.49 0.2,0 0.41,0.17 0.41,0.37 0,0.06 0,0.08 -0.06,0.22 -0.29,0.72 -0.29,1.36 -0.29,1.64 0,0.53 0.07,1.06 0.18,1.58 h 1.14 c 0.12,0 0.48,0 0.48,0.34 0,0.24 -0.21,0.24 -0.4,0.24 h -3.33 c -0.22,0 -0.6,0 -1.03,-0.47 -0.35,-0.39 -0.61,-0.85 -0.61,-0.89 0,-0.01 0,-0.1 0.12,-0.1 0.08,0 0.1,0.04 0.16,0.12 0.49,0.76 1.06,0.76 1.26,0.76 h 0.57 c -0.32,-1.2 -0.86,-2.4 -1.27,-3.31 -0.08,-0.15 -0.08,-0.17 -0.08,-0.24 0,-0.19 0.16,-0.26 0.28,-0.26 0.3,0 0.38,0.27 0.5,0.64 0.14,0.46 0.14,0.48 0.27,0.98 z"
   id="path5037" />
</g>    <path
       style="fill:none;stroke:#ff0000;stroke-width:1.09134042;stroke-linecap:butt;stroke-linejoin:miter;stroke-miterlimit:4;stroke-opacity:1;stroke-dasharray:none"
       d="m 359.56954,466.47371 0,-121.72339 -59.55423,-47.98224 -59.55423,47.98224 0,121.89758"
       id="path5683"
       inkscape:connector-curvature="0" />
    <path
       inkscape:connector-curvature="0"
       id="path5802"
       d="m 476.07143,465.93361 0,-20.71429 -176.05612,-31.42857 -175.37245,31.42857 0,21.07143"
       style="fill:none;stroke:#000000;stroke-width:1px;stroke-linecap:butt;stroke-linejoin:miter;stroke-opacity:1" />
    <g
       style="font-style:normal;font-variant:normal;font-weight:normal;font-stretch:normal;letter-spacing:normal;word-spacing:normal;text-anchor:start;fill:none;stroke:#ff0000;stroke-linecap:butt;stroke-linejoin:miter;stroke-miterlimit:10.43299961;stroke-opacity:1;stroke-dasharray:none;stroke-dashoffset:0"
       ns0:preamble=""
       ns0:text="$Y(\\Omega)$"
       word-spacing="normal"
       letter-spacing="normal"
       font-size-adjust="none"
       font-stretch="normal"
       font-weight="normal"
       font-variant="normal"
       font-style="normal"
       stroke-miterlimit="10.433"
       xml:space="preserve"
       transform="matrix(1.5,0,0,-1.5,47.13143,1510.2193)"
       id="g5877">
<path
   style="fill:#000000;stroke-width:0"
   inkscape:connector-curvature="0"
   id="path5879"
   d="m 229.37,712.78 0.14,0.14 c 0.3,0.29 0.63,0.63 1.3,0.68 0.11,0.01 0.2,0.01 0.2,0.19 0,0.08 -0.05,0.12 -0.13,0.12 -0.25,0 -0.54,-0.03 -0.81,-0.03 -0.33,0 -0.68,0.03 -1,0.03 -0.06,0 -0.19,0 -0.19,-0.19 0,-0.11 0.1,-0.12 0.15,-0.12 0.07,0 0.36,-0.02 0.36,-0.23 0,-0.16 -0.23,-0.42 -0.27,-0.47 l -2.3,-2.66 -1.1,2.96 c -0.06,0.13 -0.06,0.15 -0.06,0.16 0,0.24 0.49,0.24 0.59,0.24 0.14,0 0.24,0 0.24,0.2 0,0.11 -0.12,0.11 -0.15,0.11 -0.28,0 -0.98,-0.03 -1.26,-0.03 -0.24,0 -0.86,0.03 -1.11,0.03 -0.06,0 -0.19,0 -0.19,-0.2 0,-0.11 0.1,-0.11 0.23,-0.11 0.6,0 0.64,-0.09 0.73,-0.34 l 1.22,-3.26 c 0.01,-0.03 0.04,-0.14 0.04,-0.17 0,-0.03 -0.4,-1.63 -0.45,-1.81 -0.13,-0.55 -0.14,-0.58 -0.93,-0.59 -0.19,0 -0.27,0 -0.27,-0.2 0,-0.1 0.12,-0.1 0.14,-0.1 0.27,0 0.97,0.03 1.25,0.03 0.28,0 1,-0.03 1.27,-0.03 0.07,0 0.19,0 0.19,0.19 0,0.11 -0.09,0.11 -0.28,0.11 -0.02,0 -0.21,0 -0.37,0.02 -0.21,0.02 -0.27,0.04 -0.27,0.16 0,0.07 0.09,0.42 0.14,0.63 l 0.34,1.4 c 0.06,0.19 0.06,0.22 0.14,0.31 z" />
<path
   style="fill:#000000;stroke-width:0"
   inkscape:connector-curvature="0"
   id="path5881"
   d="m 234.72,704.74 0,0.01 0,0 0,0 0,0.01 0,0 0,0 0,0.01 0,0 0,0 -0.01,0.01 0,0 0,0.01 0,0 -0.01,0.01 0,0 -0.01,0.01 0,0.01 -0.01,0 0,0.01 0,0 -0.01,0.01 0,0 -0.01,0 0,0.01 0,0 -0.01,0.01 0,0 -0.01,0.01 0,0 -0.01,0.01 0,0 -0.01,0.01 0,0.01 -0.01,0 -0.01,0.01 0,0.01 -0.01,0 -0.01,0.01 0,0.01 -0.01,0 -0.01,0.01 -0.01,0.01 c -1.24,1.25 -1.56,3.13 -1.56,4.65 0,1.73 0.38,3.46 1.6,4.7 0.13,0.12 0.13,0.14 0.13,0.17 0,0.07 -0.04,0.1 -0.1,0.1 -0.1,0 -0.99,-0.68 -1.58,-1.94 -0.51,-1.09 -0.63,-2.2 -0.63,-3.03 0,-0.78 0.11,-1.98 0.66,-3.1 0.6,-1.22 1.45,-1.87 1.55,-1.87 0.06,0 0.1,0.03 0.1,0.1 z" />
<path
   style="fill:#000000;stroke-width:0"
   inkscape:connector-curvature="0"
   id="path5883"
   d="m 242.04,708.73 h -0.25 c -0.05,-0.25 -0.09,-0.48 -0.18,-0.72 -0.05,-0.16 -0.08,-0.24 -0.65,-0.24 h -0.8 c 0.13,0.56 0.44,1.03 0.88,1.69 0.47,0.7 0.88,1.39 0.88,2.18 0,1.38 -1.34,2.49 -3.02,2.49 -1.72,0 -3.04,-1.13 -3.04,-2.49 0,-0.79 0.41,-1.48 0.88,-2.18 0.44,-0.66 0.75,-1.13 0.88,-1.69 h -0.79 c -0.58,0 -0.61,0.08 -0.66,0.23 -0.08,0.23 -0.13,0.49 -0.18,0.73 h -0.25 l 0.33,-1.6 h 1.59 c 0.22,0 0.25,0 0.25,0.2 0,0.7 -0.31,1.57 -0.54,2.21 -0.21,0.57 -0.48,1.36 -0.48,2.11 0,1.58 1.09,2.26 2,2.26 0.95,0 2.01,-0.71 2.01,-2.26 0,-0.75 -0.27,-1.5 -0.56,-2.32 -0.15,-0.42 -0.47,-1.31 -0.47,-2 0,-0.2 0.03,-0.2 0.26,-0.2 h 1.58 z" />
<path
   style="fill:#000000;stroke-width:0"
   inkscape:connector-curvature="0"
   id="path5885"
   d="m 245.38,709.61 -0.01,0.07 0,0.08 0,0.08 0,0.08 -0.01,0.17 -0.01,0.17 -0.02,0.18 -0.02,0.19 -0.03,0.2 -0.03,0.2 -0.04,0.2 -0.04,0.21 -0.06,0.21 -0.06,0.21 -0.07,0.21 -0.08,0.21 -0.04,0.11 -0.04,0.11 -0.05,0.1 -0.05,0.11 c -0.6,1.22 -1.45,1.87 -1.55,1.87 -0.06,0 -0.1,-0.04 -0.1,-0.1 0,-0.03 0,-0.05 0.19,-0.23 0.97,-0.99 1.54,-2.57 1.54,-4.64 0,-1.7 -0.37,-3.45 -1.6,-4.7 -0.13,-0.12 -0.13,-0.14 -0.13,-0.17 0,-0.06 0.04,-0.1 0.1,-0.1 0.1,0 0.99,0.68 1.58,1.94 0.51,1.09 0.63,2.19 0.63,3.03 z" />
</g>    <path
       inkscape:connector-curvature="0"
       id="path4939-6"
       d="m 250.01276,459.33085 0,14.28571"
       style="fill:none;stroke:#000000;stroke-width:1px;stroke-linecap:butt;stroke-linejoin:miter;stroke-opacity:1" />
    <path
       inkscape:connector-curvature="0"
       id="path4939-6-7"
       d="m 350.01786,459.07831 0,14.28571"
       style="fill:none;stroke:#000000;stroke-width:1px;stroke-linecap:butt;stroke-linejoin:miter;stroke-opacity:1" />
    <g
       id="g6326"
       transform="matrix(2.4309066,0,0,-2.4309066,-203.88852,2213.6495)"
       xml:space="preserve"
       stroke="black"
       stroke-linecap="butt"
       stroke-linejoin="miter"
       stroke-miterlimit="10.433"
       stroke-dasharray="none"
       stroke-dashoffset="0"
       stroke-opacity="1"
       fill="none"
       fill-rule="evenodd"
       fill-opacity="1"
       font-style="normal"
       font-variant="normal"
       font-weight="normal"
       font-stretch="normal"
       font-size-adjust="none"
       letter-spacing="normal"
       word-spacing="normal"
       text-anchor="start"
       ns0:text="$\\frac{\\pi}{I}$"
       ns0:preamble=""
       style="font-style:normal;font-variant:normal;font-weight:normal;font-stretch:normal;letter-spacing:normal;word-spacing:normal;text-anchor:start;fill:none;stroke:#000000;stroke-linecap:butt;stroke-linejoin:miter;stroke-miterlimit:10.43299961;stroke-opacity:1;stroke-dasharray:none;stroke-dashoffset:0">
<path
   d="M226.79,713.57 H227.62 C227.52,713.16,227.37,712.52,227.37,711.97 C227.37,711.7,227.4,711.51,227.44,711.35 C227.55,711.01,227.64,710.98,227.76,710.98 C227.91,710.98,228.08,711.12,228.08,711.29 C228.08,711.35,228.07,711.38,228.03,711.44 C227.89,711.7,227.77,712.1,227.77,712.67 C227.77,712.8,227.77,713.08,227.87,713.57 H228.74 C228.86,713.57,228.92,713.57,228.99,713.63 C229.09,713.7,229.11,713.81,229.11,713.84 C229.11,714.04,228.93,714.04,228.81,714.04 H226.19 C225.9,714.04,225.71,713.98,225.39,713.69 C225.21,713.53,224.94,713.16,224.94,713.09 C224.94,713.01,225.03,713.01,225.06,713.01 C225.14,713.01,225.14,713.02,225.18,713.09 C225.54,713.57,225.97,713.57,226.13,713.57 H226.55 C226.33,712.81,225.96,711.99,225.75,711.57 C225.71,711.48,225.64,711.33,225.62,711.3 C225.61,711.28,225.6,711.25,225.6,711.2 C225.6,711.09,225.68,710.98,225.84,710.98 C226.12,710.98,226.2,711.29,226.36,711.92 Z "
   stroke-width="0"
   fill="black"
   id="path6328" />
<line
   x1="224.63"
   y1="709.62"
   x2="229.54"
   y2="709.62"
   stroke-width="0.398"
   id="line6330" />
<path
   d="M227.92,707.89 L227.93,707.91 L227.93,707.93 L227.94,707.95 L227.94,707.97 L227.95,707.99 L227.96,708.01 L227.96,708.02 L227.97,708.04 L227.98,708.05 L227.98,708.06 L227.99,708.08 L228,708.09 L228.01,708.1 L228.02,708.11 L228.04,708.12 L228.05,708.13 L228.06,708.14 L228.08,708.14 L228.1,708.15 L228.12,708.16 L228.14,708.16 L228.15,708.16 L228.16,708.17 L228.18,708.17 L228.19,708.17 L228.2,708.17 L228.22,708.18 L228.23,708.18 L228.25,708.18 L228.26,708.18 L228.28,708.18 L228.29,708.18 L228.31,708.18 L228.33,708.18 L228.35,708.19 L228.37,708.19 L228.39,708.19 L228.41,708.19 L228.43,708.19 L228.45,708.19 L228.47,708.19 L228.5,708.19 L228.52,708.19 C228.7,708.19,228.78,708.19,228.78,708.34 C228.78,708.4,228.73,708.44,228.67,708.44 C228.52,708.44,228.35,708.42,228.2,708.42 C228.05,708.42,227.88,708.41,227.73,708.41 C227.73,708.41,227.25,708.42,227.25,708.42 C227.09,708.42,226.92,708.44,226.77,708.44 C226.72,708.44,226.62,708.44,226.62,708.29 C226.62,708.19,226.7,708.19,226.85,708.19 C226.86,708.19,227,708.19,227.11,708.17 C227.25,708.16,227.3,708.15,227.3,708.08 C227.3,708.04,227.29,707.99,227.27,707.93 L226.35,704.24 C226.29,704.01,226.27,703.94,225.75,703.94 C225.56,703.94,225.49,703.94,225.49,703.79 C225.49,703.78,225.49,703.69,225.6,703.69 C225.81,703.69,226.33,703.72,226.54,703.72 L227.02,703.71 C227.18,703.71,227.35,703.69,227.5,703.69 C227.55,703.69,227.65,703.69,227.65,703.84 C227.65,703.94,227.57,703.94,227.43,703.94 C227.41,703.94,227.27,703.94,227.13,703.95 C226.97,703.97,226.97,704,226.97,704.06 C226.97,704.07,226.97,704.11,227,704.21 Z "
   stroke-width="0"
   fill="black"
   id="path6332" />
</g>    <g
       style="font-style:normal;font-variant:normal;font-weight:normal;font-stretch:normal;letter-spacing:normal;word-spacing:normal;text-anchor:start;fill:none;stroke:#000000;stroke-linecap:butt;stroke-linejoin:miter;stroke-miterlimit:10.43299961;stroke-opacity:1;stroke-dasharray:none;stroke-dashoffset:0"
       ns0:preamble=""
       ns0:text="$-\\frac{\\pi}{I}$"
       text-anchor="start"
       word-spacing="normal"
       letter-spacing="normal"
       font-size-adjust="none"
       font-stretch="normal"
       font-weight="normal"
       font-variant="normal"
       font-style="normal"
       fill-opacity="1"
       fill-rule="evenodd"
       fill="none"
       stroke-opacity="1"
       stroke-dashoffset="0"
       stroke-dasharray="none"
       stroke-miterlimit="10.433"
       stroke-linejoin="miter"
       stroke-linecap="butt"
       stroke="black"
       xml:space="preserve"
       transform="matrix(2.4309066,0,0,-2.4309066,-317.02051,2211.702)"
       id="g6445">
<path
   id="path6447"
   fill="black"
   stroke-width="0"
   d="M229.99,709.41 L230.02,709.41 L230.05,709.41 L230.08,709.41 L230.1,709.41 L230.11,709.41 L230.13,709.41 L230.14,709.42 L230.16,709.42 L230.17,709.42 L230.19,709.42 L230.2,709.43 L230.21,709.43 L230.23,709.43 L230.24,709.44 L230.25,709.45 L230.26,709.45 L230.27,709.46 L230.28,709.47 L230.29,709.47 L230.3,709.48 L230.31,709.49 L230.31,709.5 L230.31,709.5 L230.32,709.51 L230.32,709.52 L230.32,709.52 L230.32,709.53 L230.33,709.54 L230.33,709.54 L230.33,709.55 L230.33,709.56 L230.33,709.57 L230.33,709.57 L230.34,709.58 L230.34,709.59 L230.34,709.6 L230.34,709.61 C230.34,709.81,230.16,709.81,229.99,709.81 H224.61 C224.44,709.81,224.26,709.81,224.26,709.61 C224.26,709.41,224.44,709.41,224.61,709.41 Z " />
<path
   id="path6449"
   fill="black"
   stroke-width="0"
   d="M234.54,713.57 H235.37 C235.27,713.16,235.11,712.52,235.11,711.97 C235.11,711.7,235.15,711.51,235.19,711.35 C235.3,711.01,235.39,710.98,235.5,710.98 C235.66,710.98,235.83,711.12,235.83,711.29 C235.83,711.35,235.82,711.38,235.77,711.44 C235.64,711.7,235.52,712.1,235.52,712.67 C235.52,712.8,235.52,713.08,235.62,713.57 H236.49 C236.61,713.57,236.67,713.57,236.74,713.63 C236.84,713.7,236.86,713.81,236.86,713.84 C236.86,714.04,236.68,714.04,236.56,714.04 H233.94 C233.65,714.04,233.46,713.98,233.14,713.69 C232.96,713.53,232.69,713.16,232.69,713.09 C232.69,713.01,232.78,713.01,232.81,713.01 C232.88,713.01,232.89,713.02,232.93,713.09 C233.29,713.57,233.72,713.57,233.87,713.57 H234.3 C234.08,712.81,233.71,711.99,233.5,711.57 C233.46,711.48,233.39,711.33,233.37,711.3 C233.36,711.28,233.34,711.25,233.34,711.2 C233.34,711.09,233.43,710.98,233.59,710.98 C233.87,710.98,233.94,711.29,234.11,711.92 Z " />
<line
   id="line6451"
   stroke-width="0.398"
   y2="709.62"
   x2="237.29"
   y1="709.62"
   x1="232.38" />
<path
   id="path6453"
   fill="black"
   stroke-width="0"
   d="M235.67,707.89 L235.68,707.91 L235.68,707.93 L235.69,707.95 L235.69,707.97 L235.7,707.99 L235.7,708.01 L235.71,708.02 L235.72,708.04 L235.72,708.05 L235.73,708.06 L235.74,708.08 L235.75,708.09 L235.76,708.1 L235.77,708.11 L235.78,708.12 L235.8,708.13 L235.81,708.14 L235.83,708.14 L235.85,708.15 L235.87,708.16 L235.89,708.16 L235.9,708.16 L235.91,708.17 L235.92,708.17 L235.94,708.17 L235.95,708.17 L235.96,708.18 L235.98,708.18 L235.99,708.18 L236.01,708.18 L236.03,708.18 L236.04,708.18 L236.06,708.18 L236.08,708.18 L236.1,708.19 L236.12,708.19 L236.14,708.19 L236.16,708.19 L236.18,708.19 L236.2,708.19 L236.22,708.19 L236.24,708.19 L236.27,708.19 C236.44,708.19,236.53,708.19,236.53,708.34 C236.53,708.4,236.48,708.44,236.42,708.44 C236.27,708.44,236.1,708.42,235.95,708.42 C235.8,708.42,235.63,708.41,235.48,708.41 C235.48,708.41,234.99,708.42,234.99,708.42 C234.84,708.42,234.67,708.44,234.51,708.44 C234.47,708.44,234.37,708.44,234.37,708.29 C234.37,708.19,234.45,708.19,234.6,708.19 C234.6,708.19,234.74,708.19,234.86,708.17 C235,708.16,235.05,708.15,235.05,708.08 C235.05,708.04,235.04,707.99,235.02,707.93 L234.1,704.24 C234.04,704.01,234.02,703.94,233.5,703.94 C233.31,703.94,233.24,703.94,233.24,703.79 C233.24,703.78,233.24,703.69,233.35,703.69 C233.56,703.69,234.08,703.72,234.29,703.72 L234.77,703.71 C234.93,703.71,235.1,703.69,235.25,703.69 C235.29,703.69,235.4,703.69,235.4,703.84 C235.4,703.94,235.32,703.94,235.18,703.94 C235.16,703.94,235.02,703.94,234.88,703.95 C234.72,703.97,234.72,704,234.72,704.06 C234.72,704.07,234.72,704.11,234.74,704.21 Z " />
</g>    <g
       id="g6566"
       transform="matrix(1.5,0,0,-1.5,-26.909283,1408.5629)"
       xml:space="preserve"
       stroke-miterlimit="10.433"
       font-style="normal"
       font-variant="normal"
       font-weight="normal"
       font-stretch="normal"
       font-size-adjust="none"
       letter-spacing="normal"
       word-spacing="normal"
       ns0:text="$Z(\\Omega)$"
       ns0:preamble=""
       style="font-style:normal;font-variant:normal;font-weight:normal;font-stretch:normal;letter-spacing:normal;word-spacing:normal;text-anchor:start;fill:none;stroke:#ff0000;stroke-linecap:butt;stroke-linejoin:miter;stroke-miterlimit:10.43299961;stroke-opacity:1;stroke-dasharray:none;stroke-dashoffset:0">
<path
   d="m 230.6,713.67 0,0.01 0,0.01 0,0 0,0.01 0.01,0.01 0,0.01 0,0.01 0,0.01 0.01,0.01 0,0.01 0,0.01 0,0.01 0,0.01 0,0.01 0,0 0,0.01 0,0 0.01,0.01 c 0,0.09 -0.05,0.09 -0.25,0.09 h -4.2 c -0.24,0 -0.25,-0.01 -0.31,-0.2 l -0.55,-1.79 c -0.02,-0.05 -0.03,-0.12 -0.03,-0.14 0,-0.01 0,-0.11 0.12,-0.11 0.09,0 0.11,0.07 0.13,0.1 0.38,1.18 0.9,1.83 2.45,1.83 h 1.62 l -5.56,-6.21 c 0,-0.01 -0.04,-0.15 -0.04,-0.18 0,-0.08 0.07,-0.08 0.25,-0.08 h 4.33 c 0.23,0 0.24,0.01 0.3,0.19 l 0.71,2.2 c 0.01,0.04 0.04,0.11 0.04,0.15 0,0.05 -0.04,0.11 -0.13,0.11 -0.09,0 -0.1,-0.04 -0.17,-0.25 -0.44,-1.35 -0.91,-2.07 -2.6,-2.07 h -1.71 z"
   id="path6568"
   inkscape:connector-curvature="0"
   style="fill:#000000;stroke-width:0" />
<path
   d="m 234.24,704.74 0,0.01 0,0 0,0 0,0.01 0,0 0,0 0,0.01 -0.01,0 0,0 0,0.01 0,0 -0.01,0.01 0,0 0,0.01 -0.01,0 0,0.01 -0.01,0.01 0,0 -0.01,0.01 0,0 0,0.01 -0.01,0 0,0 0,0.01 -0.01,0 0,0.01 -0.01,0 0,0.01 -0.01,0 0,0.01 -0.01,0 0,0.01 -0.01,0.01 0,0 -0.01,0.01 -0.01,0.01 0,0 -0.01,0.01 -0.01,0.01 0,0 -0.01,0.01 -0.01,0.01 c -1.24,1.25 -1.56,3.13 -1.56,4.65 0,1.73 0.38,3.46 1.6,4.7 0.13,0.12 0.13,0.14 0.13,0.17 0,0.07 -0.04,0.1 -0.1,0.1 -0.1,0 -0.99,-0.68 -1.58,-1.94 -0.51,-1.09 -0.63,-2.2 -0.63,-3.03 0,-0.78 0.11,-1.98 0.66,-3.1 0.59,-1.22 1.45,-1.87 1.55,-1.87 0.06,0 0.1,0.03 0.1,0.1 z"
   id="path6570"
   inkscape:connector-curvature="0"
   style="fill:#000000;stroke-width:0" />
<path
   d="m 241.56,708.73 h -0.25 c -0.05,-0.25 -0.09,-0.48 -0.18,-0.72 -0.05,-0.16 -0.08,-0.24 -0.66,-0.24 h -0.79 c 0.12,0.56 0.43,1.03 0.88,1.69 0.47,0.7 0.88,1.39 0.88,2.18 0,1.38 -1.35,2.49 -3.03,2.49 -1.71,0 -3.03,-1.13 -3.03,-2.49 0,-0.79 0.41,-1.48 0.87,-2.18 0.44,-0.66 0.76,-1.13 0.89,-1.69 h -0.8 c -0.57,0 -0.6,0.08 -0.65,0.23 -0.08,0.23 -0.13,0.49 -0.18,0.73 h -0.25 l 0.33,-1.6 h 1.59 c 0.22,0 0.25,0 0.25,0.2 0,0.7 -0.31,1.57 -0.54,2.21 -0.21,0.57 -0.49,1.36 -0.49,2.11 0,1.58 1.1,2.26 2,2.26 0.96,0 2.01,-0.71 2.01,-2.26 0,-0.75 -0.27,-1.5 -0.56,-2.32 -0.14,-0.42 -0.46,-1.31 -0.46,-2 0,-0.2 0.03,-0.2 0.26,-0.2 h 1.58 z"
   id="path6572"
   inkscape:connector-curvature="0"
   style="fill:#000000;stroke-width:0" />
<path
   d="m 244.89,709.61 0,0.07 0,0.08 0,0.08 0,0.08 -0.01,0.17 -0.01,0.17 -0.02,0.18 -0.02,0.19 -0.03,0.2 -0.03,0.2 -0.04,0.2 -0.05,0.21 -0.05,0.21 -0.06,0.21 -0.07,0.21 -0.08,0.21 -0.04,0.11 -0.05,0.11 -0.05,0.1 -0.05,0.11 c -0.59,1.22 -1.45,1.87 -1.55,1.87 -0.06,0 -0.1,-0.04 -0.1,-0.1 0,-0.03 0,-0.05 0.19,-0.23 0.98,-0.99 1.54,-2.57 1.54,-4.64 0,-1.7 -0.36,-3.45 -1.6,-4.7 -0.13,-0.12 -0.13,-0.14 -0.13,-0.17 0,-0.06 0.04,-0.1 0.1,-0.1 0.1,0 1,0.68 1.58,1.94 0.51,1.09 0.63,2.19 0.63,3.03 z"
   id="path6574"
   inkscape:connector-curvature="0"
   style="fill:#000000;stroke-width:0" />
</g>    <path
       inkscape:connector-curvature="0"
       id="path6651"
       d="m 359.60923,466.72624 0,-33.4613 -59.59392,-19.1929 -59.59392,18.81409 0,33.71384"
       style="fill:none;stroke:#0000ff;stroke-width:1.09170401px;stroke-linecap:butt;stroke-linejoin:miter;stroke-opacity:1" />
    <path
       inkscape:connector-curvature="0"
       id="path6651-9"
       d="m 240.51966,466.41702 0,-33.4613 -57.9384,-19.1929 -57.9384,18.81409 0,33.71384"
       style="fill:none;stroke:#0000ff;stroke-width:1.07643342px;stroke-linecap:butt;stroke-linejoin:miter;stroke-opacity:1" />
    <path
       inkscape:connector-curvature="0"
       id="path6651-3"
       d="m 476.25,466.9604 0,-33.4613 -58.30991,-19.1929 -58.30991,18.81409 0,33.71384"
       style="fill:none;stroke:#0000ff;stroke-width:1.07987905px;stroke-linecap:butt;stroke-linejoin:miter;stroke-opacity:1" />
    <g
       style="font-style:normal;font-variant:normal;font-weight:normal;font-stretch:normal;letter-spacing:normal;word-spacing:normal;text-anchor:start;fill:none;stroke:#000000;stroke-linecap:butt;stroke-linejoin:miter;stroke-miterlimit:10.43299961;stroke-opacity:1;stroke-dasharray:none;stroke-dashoffset:0"
       ns0:preamble=""
       ns0:text="$R(\\Omega)$"
       word-spacing="normal"
       letter-spacing="normal"
       font-size-adjust="none"
       font-stretch="normal"
       font-weight="normal"
       font-variant="normal"
       font-style="normal"
       stroke-miterlimit="10.433"
       xml:space="preserve"
       transform="matrix(1.5,0,0,-1.5,74.218882,1461.0714)"
       id="g6734">
<path
   id="path6736"
   d="m 228.6,710.5 0.09,0.02 0.1,0.03 0.09,0.03 0.1,0.03 0.09,0.03 0.1,0.03 0.1,0.04 0.09,0.04 0.1,0.05 0.09,0.04 0.09,0.05 0.09,0.05 0.09,0.05 0.08,0.06 0.09,0.06 0.08,0.06 0.07,0.06 0.08,0.06 0.07,0.07 0.07,0.07 0.06,0.07 0.06,0.07 0.05,0.08 0.05,0.08 0.05,0.08 0.04,0.08 0.03,0.08 0.03,0.09 0.02,0.09 0.02,0.09 0.01,0.09 0,0.09 c 0,0.85 -0.89,1.49 -2.19,1.49 h -2.84 c -0.2,0 -0.29,0 -0.29,-0.2 0,-0.11 0.09,-0.11 0.28,-0.11 0.02,0 0.21,0 0.38,-0.02 0.18,-0.02 0.27,-0.03 0.27,-0.16 0,-0.04 -0.01,-0.07 -0.04,-0.19 l -1.34,-5.33 c -0.1,-0.39 -0.11,-0.47 -0.9,-0.47 -0.18,0 -0.27,0 -0.27,-0.2 0,-0.1 0.12,-0.1 0.14,-0.1 0.28,0 0.97,0.03 1.25,0.03 0.28,0 0.99,-0.03 1.27,-0.03 0.08,0 0.2,0 0.2,0.19 0,0.11 -0.09,0.11 -0.28,0.11 -0.37,0 -0.65,0 -0.65,0.18 0,0.06 0.02,0.11 0.03,0.17 l 0.66,2.63 h 1.18 l -0.01,0.22 h -1.11 l 0.64,2.59 c 0.06,0.24 0.09,0.34 0.28,0.37 0.09,0.01 0.41,0.01 0.61,0.01 0.71,0 1.81,0 1.81,-0.98 0,-0.34 -0.16,-1.03 -0.55,-1.41 -0.26,-0.26 -0.78,-0.58 -1.68,-0.58 l 0.01,-0.22 c 0.91,0 1.09,-0.55 1.09,-0.9 0,-0.15 -0.08,-0.46 -0.14,-0.69 -0.07,-0.27 -0.16,-0.64 -0.16,-0.84 0,-1.07 1.19,-1.07 1.32,-1.07 0.85,0 1.19,1 1.19,1.14 0,0.12 -0.11,0.12 -0.12,0.12 -0.08,0 -0.11,-0.07 -0.12,-0.14 -0.25,-0.74 -0.68,-0.9 -0.91,-0.9 -0.33,0 -0.4,0.21 -0.4,0.6 0,0.31 0.06,0.82 0.1,1.13 0.02,0.14 0.04,0.33 0.04,0.47 0,0.76 -0.67,1.07 -0.93,1.17 z"
   inkscape:connector-curvature="0"
   style="fill:#000000;stroke-width:0" />
<path
   id="path6738"
   d="m 234.37,704.74 0,0.01 0,0 0,0 0,0.01 0,0 -0.01,0 0,0.01 0,0 0,0 0,0.01 0,0 -0.01,0.01 0,0 0,0.01 -0.01,0 0,0.01 -0.01,0.01 0,0 -0.01,0.01 0,0 0,0.01 -0.01,0 0,0 -0.01,0.01 0,0 0,0.01 -0.01,0 0,0.01 -0.01,0 0,0.01 -0.01,0 0,0.01 -0.01,0.01 -0.01,0 0,0.01 -0.01,0.01 -0.01,0 0,0.01 -0.01,0.01 -0.01,0 0,0.01 -0.01,0.01 c -1.25,1.25 -1.56,3.13 -1.56,4.65 0,1.73 0.37,3.46 1.6,4.7 0.13,0.12 0.13,0.14 0.13,0.17 0,0.07 -0.04,0.1 -0.1,0.1 -0.1,0 -1,-0.68 -1.58,-1.94 -0.51,-1.09 -0.63,-2.2 -0.63,-3.03 0,-0.78 0.11,-1.98 0.66,-3.1 0.59,-1.22 1.45,-1.87 1.55,-1.87 0.06,0 0.1,0.03 0.1,0.1 z"
   inkscape:connector-curvature="0"
   style="fill:#000000;stroke-width:0" />
<path
   id="path6740"
   d="m 241.68,708.73 h -0.25 c -0.04,-0.25 -0.08,-0.48 -0.17,-0.72 -0.05,-0.16 -0.08,-0.24 -0.66,-0.24 h -0.8 c 0.13,0.56 0.44,1.03 0.89,1.69 0.47,0.7 0.88,1.39 0.88,2.18 0,1.38 -1.35,2.49 -3.03,2.49 -1.71,0 -3.03,-1.13 -3.03,-2.49 0,-0.79 0.4,-1.48 0.87,-2.18 0.44,-0.66 0.76,-1.13 0.89,-1.69 h -0.8 c -0.58,0 -0.61,0.08 -0.66,0.23 -0.08,0.23 -0.13,0.49 -0.18,0.73 h -0.24 l 0.32,-1.6 h 1.6 c 0.21,0 0.24,0 0.24,0.2 0,0.7 -0.3,1.57 -0.53,2.21 -0.21,0.57 -0.49,1.36 -0.49,2.11 0,1.58 1.1,2.26 2,2.26 0.96,0 2.01,-0.71 2.01,-2.26 0,-0.75 -0.27,-1.5 -0.56,-2.32 -0.15,-0.42 -0.47,-1.31 -0.47,-2 0,-0.2 0.03,-0.2 0.26,-0.2 h 1.59 z"
   inkscape:connector-curvature="0"
   style="fill:#000000;stroke-width:0" />
<path
   id="path6742"
   d="m 245.02,709.61 0,0.07 0,0.08 0,0.08 -0.01,0.08 0,0.17 -0.02,0.17 -0.01,0.18 -0.02,0.19 -0.03,0.2 -0.03,0.2 -0.04,0.2 -0.05,0.21 -0.05,0.21 -0.06,0.21 -0.07,0.21 -0.08,0.21 -0.05,0.11 -0.04,0.11 -0.05,0.1 -0.05,0.11 c -0.6,1.22 -1.45,1.87 -1.55,1.87 -0.06,0 -0.1,-0.04 -0.1,-0.1 0,-0.03 0,-0.05 0.19,-0.23 0.98,-0.99 1.54,-2.57 1.54,-4.64 0,-1.7 -0.37,-3.45 -1.6,-4.7 -0.13,-0.12 -0.13,-0.14 -0.13,-0.17 0,-0.06 0.04,-0.1 0.1,-0.1 0.1,0 0.99,0.68 1.58,1.94 0.51,1.09 0.63,2.19 0.63,3.03 z"
   inkscape:connector-curvature="0"
   style="fill:#000000;stroke-width:0" />
</g>  </g>
</svg>
